<svg xmlns="http://www.w3.org/2000/svg" viewBox="0 0 420.77 92.88"><defs><style>.cls-1{fill:#052d2d}</style></defs><g id="Layer_6" data-name="Layer 6"><path class="cls-1" d="M123.46 354.35q12.09 2.82 17 6.83a18.17 18.17 0 0 1 7 14.79 19.57 19.57 0 0 1-7.71 15.85q-9.47 7.57-27.5 7.57H69.09v-2.31c3.92 0 6.59-.37 8-1.1a6.38 6.38 0 0 0 3-2.85q.84-1.75.84-8.64v-55.13q0-6.9-.84-8.68a6.18 6.18 0 0 0-3-2.85q-2.13-1.06-8-1.06v-2.32h40.72q14.6 0 20.67 2.6a21.47 21.47 0 0 1 9.58 7.77 19.21 19.21 0 0 1 3.51 11 15.6 15.6 0 0 1-4.45 10.93q-4.44 4.79-15.66 7.6zm-22.8 3.2v27.25l-.06 3.13a6.06 6.06 0 0 0 6.83 6.83 19.47 19.47 0 0 0 9.24-2.23 15.17 15.17 0 0 0 6.48-6.45 19.74 19.74 0 0 0 2.25-9.42 20.83 20.83 0 0 0-2.75-10.66 14.93 14.93 0 0 0-7.58-6.61q-4.83-1.9-14.41-1.84zm0-4.89q8.9 0 13.13-2a15 15 0 0 0 6.48-5.64 20.28 20.28 0 0 0 0-18.51 14.08 14.08 0 0 0-6.36-5.48q-4.14-1.89-13.28-1.82zM179 390.75q-10.71 9.47-19.23 9.46a11.36 11.36 0 0 1-8.33-3.29 11.09 11.09 0 0 1-3.32-8.24q0-6.71 5.76-12.06T179 362.37v-5.89q0-6.63-.72-8.36a6.74 6.74 0 0 0-2.73-3 8.21 8.21 0 0 0-4.51-1.28 11.49 11.49 0 0 0-6.7 1.82 3.18 3.18 0 0 0-1.63 2.63 5.47 5.47 0 0 0 1.76 3.25 8.07 8.07 0 0 1 2.38 5.2 7 7 0 0 1-2.29 5.24 8.39 8.39 0 0 1-6 2.16 9.54 9.54 0 0 1-6.61-2.39 7.23 7.23 0 0 1-2.66-5.57 13 13 0 0 1 3.57-8.61 22.51 22.51 0 0 1 10-6.3 40.65 40.65 0 0 1 13.28-2.19q8.32 0 13.19 3.54t6.29 7.67q.89 2.64.88 12.09v22.74a23.49 23.49 0 0 0 .31 5 3 3 0 0 0 .94 1.54 2.27 2.27 0 0 0 1.44.5c1.09 0 2.19-.77 3.32-2.32l1.88 1.51a22.91 22.91 0 0 1-6.48 6.73 14 14 0 0 1-7.61 2.1c-3.35 0-6-.79-7.83-2.35s-3.06-3.91-3.47-7.08zm0-4.57v-19.61q-7.58 4.44-11.28 9.52a11.65 11.65 0 0 0-2.44 6.83 7.16 7.16 0 0 0 2.07 5.07 5.65 5.65 0 0 0 4.38 1.69c2.08 0 4.51-1.16 7.27-3.5z" transform="translate(-69.09 -308.26)"/><path class="cls-1" d="M225.49 340.82v13.28q5.84-9.1 10.22-12.1a15.13 15.13 0 0 1 8.45-3 7.47 7.47 0 0 1 5.61 2.16 8.41 8.41 0 0 1 2.1 6.11 9.51 9.51 0 0 1-2 6.51 6.28 6.28 0 0 1-4.91 2.32 8.49 8.49 0 0 1-5.77-2.13 36.64 36.64 0 0 0-2.88-2.38 2.76 2.76 0 0 0-1.44-.38 5.24 5.24 0 0 0-3.44 1.38 13 13 0 0 0-3.89 6.08 42.5 42.5 0 0 0-2 13.41v13.46l.07 3.51a14.11 14.11 0 0 0 .44 4.57 5 5 0 0 0 2.22 2.48 13 13 0 0 0 5 1v2.25h-31.7v-2.25c2.54-.21 4.27-.91 5.16-2.1s1.35-4.33 1.35-9.43v-32.34a24.5 24.5 0 0 0-.5-6.39 5 5 0 0 0-1.82-2.57 9.55 9.55 0 0 0-4.19-1.13v-2.32z" transform="translate(-69.09 -308.26)"/><path class="cls-1" d="M271.44 314.45v72.79q0 6.21 1.44 7.93t5.64 2v2.25h-31.64v-2.25c2.59-.08 4.51-.84 5.77-2.26.83-1 1.25-3.5 1.25-7.64V326.6q0-6.14-1.44-7.86t-5.58-2v-2.32z" transform="translate(-69.09 -308.26)"/><path class="cls-1" d="M297.46 314.45v72.79q0 6.21 1.44 7.93t5.64 2v2.25H272.9v-2.25c2.59-.08 4.51-.84 5.77-2.26.83-1 1.25-3.5 1.25-7.64V326.6q0-6.14-1.44-7.86t-5.58-2v-2.32z" transform="translate(-69.09 -308.26)"/><path class="cls-1" d="M332.88 390.75q-10.71 9.47-19.23 9.46a11.36 11.36 0 0 1-8.33-3.29 11.09 11.09 0 0 1-3.32-8.24q0-6.71 5.76-12.06t25.12-14.25v-5.89q0-6.63-.72-8.36a6.78 6.78 0 0 0-2.72-3 8.26 8.26 0 0 0-4.51-1.28 11.5 11.5 0 0 0-6.71 1.82 3.19 3.19 0 0 0-1.62 2.63 5.44 5.44 0 0 0 1.75 3.25 8.07 8.07 0 0 1 2.38 5.2 7 7 0 0 1-2.29 5.24 8.39 8.39 0 0 1-6 2.16 9.54 9.54 0 0 1-6.61-2.39 7.23 7.23 0 0 1-2.66-5.57 13 13 0 0 1 3.57-8.61 22.51 22.51 0 0 1 10-6.3 40.65 40.65 0 0 1 13.26-2.2q8.33 0 13.19 3.54t6.29 7.67q.88 2.64.88 12.09v22.74a23.49 23.49 0 0 0 .31 5 3.08 3.08 0 0 0 .94 1.54 2.27 2.27 0 0 0 1.44.5c1.09 0 2.2-.77 3.32-2.32l1.88 1.51a22.79 22.79 0 0 1-6.48 6.73 14 14 0 0 1-7.61 2.1c-3.34 0-6-.79-7.83-2.35s-3.03-3.9-3.45-7.07zm0-4.57v-19.61q-7.58 4.44-11.27 9.52a11.6 11.6 0 0 0-2.45 6.83 7.16 7.16 0 0 0 2.07 5.07 5.67 5.67 0 0 0 4.39 1.69c2.08 0 4.51-1.16 7.26-3.5z" transform="translate(-69.09 -308.26)"/><path class="cls-1" d="M379 340.82v7.58a34.69 34.69 0 0 1 8.64-7.11 18.56 18.56 0 0 1 8.9-2.22 14.17 14.17 0 0 1 9.46 3.16 15.23 15.23 0 0 1 5 7.86q1 3.57 1 13.72v22.81c0 4.51.4 7.32 1.22 8.42s2.51 1.81 5.1 2.1v2.25h-29.59v-2.25a6.18 6.18 0 0 0 4.75-2.76q1-1.56 1-7.76v-26.07q0-7.2-.56-9.08a5.63 5.63 0 0 0-1.91-2.91 4.77 4.77 0 0 0-3-1q-5.4 0-10 7.7v31.39q0 6.57 1.23 8.33c.8 1.17 2.32 1.9 4.53 2.19v2.25h-29.63v-2.25q3.71-.37 5.26-2.38 1.07-1.38 1.07-8.14v-33.11c0-4.43-.4-7.18-1.22-8.27s-2.52-1.79-5.11-2.13v-2.32zm94.75-26.37v67.4q0 6.84.38 8.08A5 5 0 0 0 476 393a10.16 10.16 0 0 0 4.92 1.26v2.07l-24.74 4.82v-9.27q-4.46 5.39-7.93 7.33a15.9 15.9 0 0 1-7.86 1.94q-11.22 0-17.73-10-5.26-8.14-5.26-20a41.92 41.92 0 0 1 3.26-16.94 25.39 25.39 0 0 1 8.92-11.31 21.37 21.37 0 0 1 12.18-3.82 16.41 16.41 0 0 1 7.46 1.63 24.93 24.93 0 0 1 7 5.7v-17.68q0-6.71-.57-8.08a5.35 5.35 0 0 0-2.25-2.65c-1-.59-2.88-.88-5.64-.88v-2.63zm-17.53 39.72q-4.64-8.9-11.34-8.9a5.82 5.82 0 0 0-3.83 1.25c-1.54 1.3-2.8 3.57-3.79 6.83s-1.47 8.25-1.47 15q0 11.08 1.63 16.42t4.45 7.7a6 6 0 0 0 3.95 1.19q5.51 0 10.4-8.64zm27.51-33.66a6.13 6.13 0 1 1 6.12-6.13 6.13 6.13 0 0 1-6.12 6.13zm0-11.77a5.65 5.65 0 1 0 5.64 5.64 5.65 5.65 0 0 0-5.64-5.64z" transform="translate(-69.09 -308.26)"/><path class="cls-1" d="M487.65 317.85h-1.8l-2.28-3.15h-.71v2a1.38 1.38 0 0 0 .14.79.71.71 0 0 0 .57.22h.27v.18H481v-.18h.25a.66.66 0 0 0 .61-.28 1.51 1.51 0 0 0 .11-.73v-4.35a1.4 1.4 0 0 0-.14-.79.72.72 0 0 0-.58-.22H481v-.18h2.45a6.18 6.18 0 0 1 1.59.15 1.91 1.91 0 0 1 .86.58 1.48 1.48 0 0 1 .36 1 1.6 1.6 0 0 1-.41 1.08 2.28 2.28 0 0 1-1.26.64l1.39 1.94a3.4 3.4 0 0 0 .83.88 2 2 0 0 0 .89.28zm-4.79-3.46h.29a2.18 2.18 0 0 0 1.45-.42 1.32 1.32 0 0 0 .48-1.07 1.38 1.38 0 0 0-.39-1 1.42 1.42 0 0 0-1-.4 5 5 0 0 0-.79.1z" transform="translate(-69.09 -308.26)"/></g></svg>