<svg id="Layer_1" data-name="Layer 1" xmlns="http://www.w3.org/2000/svg" viewBox="0 0 420.77 92.88"><defs><style>.cls-1{fill:#fff}</style></defs><path class="cls-1" d="M377.15 459.09q12.09 2.82 17 6.83a18.16 18.16 0 0 1 7 14.78 19.56 19.56 0 0 1-7.71 15.85q-9.46 7.59-27.5 7.58h-43.16v-2.31c3.92 0 6.59-.37 8-1.1a6.36 6.36 0 0 0 2.94-2.85c.56-1.17.85-4.05.85-8.65V434.1c0-4.6-.29-7.49-.85-8.68a6.2 6.2 0 0 0-3-2.85q-2.14-1.06-8-1.06v-2.32h40.78q14.6 0 20.67 2.6a21.55 21.55 0 0 1 9.59 7.77 19.28 19.28 0 0 1 3.5 11 15.61 15.61 0 0 1-4.45 10.93q-4.44 4.79-15.66 7.6zm-22.8 3.2v27.25l-.06 3.13a6.07 6.07 0 0 0 6.83 6.83 19.47 19.47 0 0 0 9.24-2.23 15.17 15.17 0 0 0 6.48-6.45 19.76 19.76 0 0 0 2.26-9.43 20.83 20.83 0 0 0-2.76-10.68 14.93 14.93 0 0 0-7.58-6.61q-4.83-1.87-14.41-1.81zm0-4.89q8.89 0 13.13-2a15 15 0 0 0 6.48-5.64 20.2 20.2 0 0 0 0-18.51 14.1 14.1 0 0 0-6.36-5.49q-4.12-1.87-13.28-1.81zm78.33 38.09Q422 504.94 413.45 505a11.36 11.36 0 0 1-8.33-3.29 11.13 11.13 0 0 1-3.32-8.24q0-6.71 5.76-12.06t25.12-14.25v-5.89q0-6.63-.72-8.36a6.78 6.78 0 0 0-2.72-3 8.24 8.24 0 0 0-4.51-1.28 11.57 11.57 0 0 0-6.71 1.81 3.22 3.22 0 0 0-1.62 2.56 5.44 5.44 0 0 0 1.75 3.25 8.07 8.07 0 0 1 2.38 5.2 6.91 6.91 0 0 1-2.29 5.23 8.35 8.35 0 0 1-6 2.16 9.53 9.53 0 0 1-6.61-2.38 7.23 7.23 0 0 1-2.66-5.57 13 13 0 0 1 3.57-8.62 22.58 22.58 0 0 1 10-6.29 40.65 40.65 0 0 1 13.28-2.19q8.32 0 13.19 3.54t6.29 7.67c.59 1.75.88 5.79.88 12.09v22.74a23.56 23.56 0 0 0 .31 5 3.12 3.12 0 0 0 .94 1.54 2.27 2.27 0 0 0 1.44.5c1.09 0 2.2-.77 3.32-2.32l1.88 1.5a23 23 0 0 1-6.48 6.74A14 14 0 0 1 444 505c-3.34 0-5.95-.79-7.83-2.35s-3.07-3.99-3.49-7.16zm0-4.58v-19.6q-7.57 4.44-11.27 9.52a11.58 11.58 0 0 0-2.45 6.83 7.16 7.16 0 0 0 2.07 5.07 5.67 5.67 0 0 0 4.39 1.69c2.08 0 4.51-1.16 7.26-3.51z" transform="translate(-322.78 -413)"/><path class="cls-1" d="M479.19 445.56v13.28q5.82-9.07 10.21-12.06a15.14 15.14 0 0 1 8.46-3 7.46 7.46 0 0 1 5.6 2.16 8.39 8.39 0 0 1 2.1 6.11 9.51 9.51 0 0 1-2 6.51 6.28 6.28 0 0 1-4.91 2.32 8.49 8.49 0 0 1-5.77-2.13 36.64 36.64 0 0 0-2.88-2.35 2.76 2.76 0 0 0-1.44-.38 5.24 5.24 0 0 0-3.44 1.38 13 13 0 0 0-3.89 6.08 42.77 42.77 0 0 0-2 13.4v13.47l.06 3.51a14.42 14.42 0 0 0 .44 4.57 5 5 0 0 0 2.22 2.48 13 13 0 0 0 5 1v2.25h-31.69v-2.25c2.54-.21 4.27-.91 5.16-2.1s1.35-4.33 1.35-9.43V458c0-3.34-.16-5.47-.5-6.39a5 5 0 0 0-1.81-2.56 9.64 9.64 0 0 0-4.2-1.13v-2.32z" transform="translate(-322.78 -413)"/><path class="cls-1" d="M525.13 419.19V492c0 4.13.48 6.78 1.44 7.92s2.84 1.81 5.64 2v2.25h-31.64v-2.25c2.59-.09 4.52-.84 5.77-2.26q1.25-1.44 1.25-7.64v-60.68q0-6.13-1.44-7.86t-5.58-2v-2.32z" transform="translate(-322.78 -413)"/><path class="cls-1" d="M551.15 419.19V492c0 4.13.48 6.78 1.44 7.92s2.84 1.81 5.64 2v2.25H526.6v-2.25q3.89-.13 5.76-2.26c.84-1 1.25-3.51 1.25-7.64v-60.68q0-6.13-1.44-7.86t-5.57-2v-2.32z" transform="translate(-322.78 -413)"/><path class="cls-1" d="M586.57 495.49q-10.71 9.45-19.23 9.46a11.36 11.36 0 0 1-8.33-3.29 11.13 11.13 0 0 1-3.32-8.24q0-6.71 5.76-12.06t25.12-14.25v-5.89q0-6.63-.72-8.36a6.78 6.78 0 0 0-2.72-3 8.24 8.24 0 0 0-4.51-1.28 11.57 11.57 0 0 0-6.71 1.81 3.22 3.22 0 0 0-1.62 2.64 5.44 5.44 0 0 0 1.75 3.25 8 8 0 0 1 2.38 5.2 6.91 6.91 0 0 1-2.29 5.23 8.35 8.35 0 0 1-6 2.16 9.55 9.55 0 0 1-6.61-2.38 7.26 7.26 0 0 1-2.66-5.57 13 13 0 0 1 3.57-8.62 22.58 22.58 0 0 1 10-6.29 40.69 40.69 0 0 1 13.28-2.19q8.34 0 13.19 3.54t6.29 7.67c.59 1.75.88 5.79.88 12.09v22.74a23.56 23.56 0 0 0 .31 5 3.12 3.12 0 0 0 .94 1.54 2.27 2.27 0 0 0 1.44.5c1.09 0 2.2-.77 3.32-2.32l1.88 1.5a22.84 22.84 0 0 1-6.48 6.74 14 14 0 0 1-7.61 2.1c-3.34 0-6-.79-7.83-2.35s-3.04-3.91-3.47-7.08zm0-4.58v-19.6q-7.58 4.44-11.27 9.52a11.58 11.58 0 0 0-2.45 6.83 7.16 7.16 0 0 0 2.07 5.07 5.67 5.67 0 0 0 4.39 1.69c2.08 0 4.51-1.16 7.26-3.51z" transform="translate(-322.78 -413)"/><path class="cls-1" d="M632.71 445.56v7.58a34.12 34.12 0 0 1 8.64-7.11 18.52 18.52 0 0 1 8.89-2.22 14.22 14.22 0 0 1 9.47 3.16 15.21 15.21 0 0 1 5 7.86q1 3.57 1 13.72v22.8c0 4.51.4 7.32 1.22 8.43s2.51 1.81 5.11 2.1v2.25h-29.62v-2.25a6.18 6.18 0 0 0 4.75-2.76q1-1.56 1-7.77v-26.06c0-4.8-.18-7.83-.56-9.08a5.57 5.57 0 0 0-1.91-2.91 4.78 4.78 0 0 0-3-1c-3.6 0-6.93 2.57-10 7.71v31.38c0 4.39.4 7.17 1.22 8.34s2.33 1.9 4.53 2.19v2.25h-29.62v-2.25c2.47-.25 4.22-1.05 5.26-2.38.72-.92 1.07-3.64 1.07-8.15v-33.11c0-4.43-.4-7.18-1.22-8.27s-2.51-1.8-5.11-2.13v-2.32zm94.74-26.37v67.4c0 4.55.12 7.25.37 8.08a5 5 0 0 0 1.91 3.07 10.16 10.16 0 0 0 4.92 1.26v2.06l-24.74 4.83v-9.28q-4.45 5.4-7.93 7.33a15.77 15.77 0 0 1-7.86 1.95q-11.22 0-17.73-10-5.26-8.13-5.26-20a42.14 42.14 0 0 1 3.26-16.95 25.37 25.37 0 0 1 8.93-11.3 21.35 21.35 0 0 1 12.18-3.82 16.52 16.52 0 0 1 7.45 1.62 25.17 25.17 0 0 1 7 5.71v-17.68q0-6.71-.57-8.08a5.35 5.35 0 0 0-2.25-2.69c-1-.59-2.88-.88-5.64-.88v-2.63zm-17.54 39.71q-4.63-8.9-11.34-8.9a5.82 5.82 0 0 0-3.83 1.25c-1.54 1.3-2.8 3.57-3.78 6.83s-1.47 8.25-1.47 15q0 11.08 1.63 16.42t4.44 7.7a6 6 0 0 0 4 1.19q5.5 0 10.4-8.65zm27.51-33.65a6.13 6.13 0 1 1 6.12-6.13 6.13 6.13 0 0 1-6.12 6.13zm0-11.77a5.65 5.65 0 1 0 5.65 5.64 5.65 5.65 0 0 0-5.65-5.64z" transform="translate(-322.78 -413)"/><path class="cls-1" d="M741.34 422.59h-1.8l-2.28-3.15h-.7v2a1.32 1.32 0 0 0 .14.79.68.68 0 0 0 .56.22h.27v.18h-2.89v-.18h.25a.66.66 0 0 0 .61-.28 1.54 1.54 0 0 0 .11-.73v-4.35a1.38 1.38 0 0 0-.14-.79.72.72 0 0 0-.58-.22h-.25v-.19h2.46a6.05 6.05 0 0 1 1.58.16 1.79 1.79 0 0 1 .86.58 1.48 1.48 0 0 1 .36 1 1.6 1.6 0 0 1-.41 1.08 2.28 2.28 0 0 1-1.25.64l1.39 1.93a3.48 3.48 0 0 0 .82.89 2 2 0 0 0 .89.28zm-4.78-3.46h.28a2.18 2.18 0 0 0 1.45-.41 1.34 1.34 0 0 0 .49-1.07 1.37 1.37 0 0 0-1.44-1.42 4.72 4.72 0 0 0-.78.1z" transform="translate(-322.78 -413)"/></svg>