<svg xmlns="http://www.w3.org/2000/svg" width="148.206" height="56.859"><defs><style>.cls-1{fill:#072222}.cls-2{fill:#032525}</style></defs><g id="Group_6" data-name="Group 6" transform="translate(-92.422 -237.483)"><g id="Group_38" data-name="Group 38" transform="translate(92.422 258.327)"><g id="Group_34" data-name="Group 34"><path id="Path_35" data-name="Path 35" class="cls-1" d="M111.575 326.267a15.277 15.277 0 0 1 5.98 2.4 6.4 6.4 0 0 1 2.471 5.207 6.9 6.9 0 0 1-2.714 5.583q-3.332 2.669-9.686 2.669h-15.2v-.816a6.877 6.877 0 0 0 2.814-.386 2.253 2.253 0 0 0 1.037-1 9.15 9.15 0 0 0 .3-3.045v-19.416a9.265 9.265 0 0 0-.3-3.056 2.181 2.181 0 0 0-1.048-1 7.053 7.053 0 0 0-2.8-.376v-.816h14.342q5.141 0 7.281.915a7.58 7.58 0 0 1 3.376 2.736 6.772 6.772 0 0 1 1.236 3.872 5.5 5.5 0 0 1-1.567 3.851q-1.573 1.685-5.522 2.678zm-8.032 1.125v9.6l-.023 1.1a2.139 2.139 0 0 0 2.405 2.406 6.882 6.882 0 0 0 3.255-.784 5.359 5.359 0 0 0 2.284-2.273 6.95 6.95 0 0 0 .794-3.32 7.333 7.333 0 0 0-.971-3.763 5.238 5.238 0 0 0-2.67-2.328 14.508 14.508 0 0 0-5.074-.637zm0-1.721a11.382 11.382 0 0 0 4.623-.706 5.255 5.255 0 0 0 2.283-1.986 7.128 7.128 0 0 0 .012-6.52 4.98 4.98 0 0 0-2.24-1.931 11.912 11.912 0 0 0-4.677-.639z" transform="translate(-92.422 -306.734)"/><path id="Path_36" data-name="Path 36" class="cls-1" d="M182.321 355.035q-3.773 3.332-6.774 3.332a4 4 0 0 1-2.934-1.158 3.916 3.916 0 0 1-1.169-2.9 5.686 5.686 0 0 1 2.03-4.247q2.03-1.887 8.848-5.02v-2.074a10.065 10.065 0 0 0-.254-2.946 2.381 2.381 0 0 0-.96-1.059 2.886 2.886 0 0 0-1.589-.453 4.061 4.061 0 0 0-2.361.64 1.126 1.126 0 0 0-.573.927 1.921 1.921 0 0 0 .618 1.147 2.831 2.831 0 0 1 .839 1.832 2.442 2.442 0 0 1-.806 1.842 2.944 2.944 0 0 1-2.107.761 3.358 3.358 0 0 1-2.328-.838 2.557 2.557 0 0 1-.938-1.963 4.573 4.573 0 0 1 1.258-3.034 7.947 7.947 0 0 1 3.508-2.218 14.314 14.314 0 0 1 4.677-.772 7.737 7.737 0 0 1 4.645 1.246 5.849 5.849 0 0 1 2.217 2.7 17.517 17.517 0 0 1 .309 4.258v8.01a8.294 8.294 0 0 0 .11 1.775 1.062 1.062 0 0 0 .331.541.784.784 0 0 0 .507.177q.574 0 1.169-.817l.663.53a8.056 8.056 0 0 1-2.284 2.372 4.945 4.945 0 0 1-2.681.739 4.185 4.185 0 0 1-2.758-.828 3.745 3.745 0 0 1-1.213-2.502zm0-1.611v-6.906a12.89 12.89 0 0 0-3.972 3.354 4.082 4.082 0 0 0-.861 2.406 2.526 2.526 0 0 0 .728 1.787 2 2 0 0 0 1.545.6 4.236 4.236 0 0 0 2.56-1.242z" transform="translate(-143.609 -322.682)"/><path id="Path_37" data-name="Path 37" class="cls-1" d="M233.329 337.449v4.677a15.085 15.085 0 0 1 3.6-4.247 5.325 5.325 0 0 1 2.979-1.048 2.627 2.627 0 0 1 1.975.761 2.965 2.965 0 0 1 .739 2.152 3.36 3.36 0 0 1-.717 2.294 2.223 2.223 0 0 1-1.732.817 2.993 2.993 0 0 1-2.03-.75 12.394 12.394 0 0 0-1.015-.838.964.964 0 0 0-.508-.132 1.849 1.849 0 0 0-1.213.485 4.573 4.573 0 0 0-1.368 2.14 15 15 0 0 0-.706 4.722v4.744l.022 1.235a5.07 5.07 0 0 0 .155 1.611 1.751 1.751 0 0 0 .783.871 4.518 4.518 0 0 0 1.754.342v.795H224.9v-.795a2.431 2.431 0 0 0 1.82-.739q.476-.629.475-3.321v-11.407a8.582 8.582 0 0 0-.176-2.251 1.784 1.784 0 0 0-.64-.9 3.413 3.413 0 0 0-1.479-.4v-.816z" transform="translate(-178.238 -322.682)"/><path id="Path_38" data-name="Path 38" class="cls-1" d="M278.868 296.66v31.117a4.918 4.918 0 0 0 .508 2.791 2.751 2.751 0 0 0 1.986.695v.795h-11.143v-.795a2.688 2.688 0 0 0 2.03-.794 4.92 4.92 0 0 0 .442-2.692v-24.94a6.177 6.177 0 0 1 6.177-6.177z" transform="translate(-207.594 -296.66)"/><path id="Path_39" data-name="Path 39" class="cls-1" d="M298.711 296.66a6.209 6.209 0 0 1 6.211 6.167c.065 9.719.223 27.441.474 27.741a2.751 2.751 0 0 0 1.986.695v.795h-11.143v-.795a2.688 2.688 0 0 0 2.03-.794 4.92 4.92 0 0 0 .442-2.692V296.66z" transform="translate(-224.449 -296.66)"/><path id="Path_40" data-name="Path 40" class="cls-1" d="M336.212 355.035q-3.773 3.332-6.774 3.332a4 4 0 0 1-2.934-1.158 3.916 3.916 0 0 1-1.169-2.9 5.686 5.686 0 0 1 2.029-4.247q2.031-1.887 8.849-5.02v-2.074a10.062 10.062 0 0 0-.254-2.946 2.379 2.379 0 0 0-.96-1.059 2.885 2.885 0 0 0-1.589-.453 4.063 4.063 0 0 0-2.361.64 1.126 1.126 0 0 0-.573.927 1.919 1.919 0 0 0 .618 1.147 2.831 2.831 0 0 1 .839 1.832 2.442 2.442 0 0 1-.806 1.842 2.944 2.944 0 0 1-2.107.761 3.358 3.358 0 0 1-2.328-.838 2.556 2.556 0 0 1-.938-1.963 4.572 4.572 0 0 1 1.258-3.034 7.948 7.948 0 0 1 3.508-2.218 14.313 14.313 0 0 1 4.677-.772 7.737 7.737 0 0 1 4.645 1.246 5.846 5.846 0 0 1 2.217 2.7 17.5 17.5 0 0 1 .309 4.258v8.01a8.29 8.29 0 0 0 .11 1.775 1.062 1.062 0 0 0 .331.541.784.784 0 0 0 .507.177q.573 0 1.169-.817l.661.53a8.041 8.041 0 0 1-2.283 2.372 4.946 4.946 0 0 1-2.681.739 4.185 4.185 0 0 1-2.758-.828 3.746 3.746 0 0 1-1.212-2.502zm0-1.611v-6.906a12.892 12.892 0 0 0-3.972 3.354 4.084 4.084 0 0 0-.861 2.406 2.526 2.526 0 0 0 .729 1.787 2 2 0 0 0 1.545.6 4.236 4.236 0 0 0 2.559-1.242z" transform="translate(-243.295 -322.682)"/><path id="Path_41" data-name="Path 41" class="cls-1" d="M386.886 337.449v2.67a12.127 12.127 0 0 1 3.043-2.5 6.517 6.517 0 0 1 3.132-.783 5 5 0 0 1 3.335 1.114 5.355 5.355 0 0 1 1.763 2.77 21.35 21.35 0 0 1 .354 4.832v8.032a6.124 6.124 0 0 0 .43 2.968 2.526 2.526 0 0 0 1.8.739v.795h-10.437v-.795a2.174 2.174 0 0 0 1.674-.971 6.282 6.282 0 0 0 .354-2.736V344.4a15.033 15.033 0 0 0-.2-3.2 1.966 1.966 0 0 0-.672-1.026 1.687 1.687 0 0 0-1.049-.364q-1.9 0-3.529 2.713v11.055a6.146 6.146 0 0 0 .43 2.935 2.188 2.188 0 0 0 1.6.771v.795h-10.437v-.795a2.554 2.554 0 0 0 1.852-.838 6.156 6.156 0 0 0 .377-2.869v-11.65a5.913 5.913 0 0 0-.43-2.913 2.627 2.627 0 0 0-1.8-.75v-.816z" transform="translate(-277.72 -322.682)"/><path id="Path_42" data-name="Path 42" class="cls-1" d="M460.61 312.212v23.742a16.116 16.116 0 0 0 .132 2.846 1.777 1.777 0 0 0 .673 1.081 3.566 3.566 0 0 0 1.732.441v.729l-8.715 1.7v-3.266a10.845 10.845 0 0 1-2.792 2.582 5.585 5.585 0 0 1-2.769.684 7.1 7.1 0 0 1-6.244-3.53 12.691 12.691 0 0 1-1.854-7.038 14.81 14.81 0 0 1 1.148-5.969 8.938 8.938 0 0 1 3.144-3.983 7.532 7.532 0 0 1 4.29-1.346 5.809 5.809 0 0 1 2.627.573 8.842 8.842 0 0 1 2.449 2.008v-6.222a11.125 11.125 0 0 0-.2-2.846 1.9 1.9 0 0 0-.794-.949 4.363 4.363 0 0 0-1.986-.309v-.926zm-6.178 13.988q-1.633-3.134-3.994-3.133a2.032 2.032 0 0 0-1.346.442 4.958 4.958 0 0 0-1.335 2.4 19.732 19.732 0 0 0-.518 5.274 21.3 21.3 0 0 0 .574 5.782 5.608 5.608 0 0 0 1.566 2.713 2.113 2.113 0 0 0 1.389.419q1.943 0 3.664-3.045z" transform="translate(-318.074 -306.734)"/></g><g id="Group_37" data-name="Group 37" transform="translate(143.894 3.299)"><g id="Group_35" data-name="Group 35"><path id="Path_43" data-name="Path 43" class="cls-1" d="M503.1 310.338a2.156 2.156 0 1 1 2.157-2.157 2.159 2.159 0 0 1-2.157 2.157zm0-4.144a1.988 1.988 0 1 0 1.988 1.987 1.99 1.99 0 0 0-1.988-1.987z" transform="translate(-500.944 -306.025)"/></g><g id="Group_36" data-name="Group 36" transform="translate(1.176 1.005)"><path id="Path_44" data-name="Path 44" class="cls-1" d="M506.643 311.251h-.634l-.8-1.11h-.25v.69a.48.48 0 0 0 .05.279.25.25 0 0 0 .2.077h.093v.064h-1.017v-.064h.089a.238.238 0 0 0 .215-.1.552.552 0 0 0 .036-.257v-1.53a.5.5 0 0 0-.048-.278.26.26 0 0 0-.2-.077h-.089v-.066h.865a2.083 2.083 0 0 1 .557.055.642.642 0 0 1 .3.2.534.534 0 0 1 .126.353.551.551 0 0 1-.144.38.793.793 0 0 1-.441.227l.49.681a1.2 1.2 0 0 0 .289.312.733.733 0 0 0 .315.1zm-1.685-1.22h.1a.765.765 0 0 0 .511-.147.467.467 0 0 0 .172-.375.491.491 0 0 0-.139-.361.5.5 0 0 0-.367-.139 1.62 1.62 0 0 0-.276.033z" transform="translate(-504.283 -308.878)"/></g></g></g><g id="Group_39" data-name="Group 39" transform="translate(122.58 237.483)"><path id="Path_45" data-name="Path 45" class="cls-2" d="M295.185 243.159a5.909 5.909 0 0 0-2.659-2.293 14.149 14.149 0 0 0-5.554-.76V254.1a19.627 19.627 0 0 0 3.8-.311 7.351 7.351 0 0 0 1.693-.528 6.243 6.243 0 0 0 2.712-2.358c.091-.146.173-.3.251-.459a7.69 7.69 0 0 0 .692-3.419 7.261 7.261 0 0 0-.935-3.866z" transform="translate(-248.603 -239.182)"/><path id="Path_46" data-name="Path 46" d="M324.081 276.8a8.7 8.7 0 0 1-.317 2.377h26.643a25.737 25.737 0 0 0-24.855-19.077 26.184 26.184 0 0 0-3.1.19 6.545 6.545 0 0 1-1.847 4.279q-1.861 2-6.55 3.183 5.056 1.179 7.1 2.856a7.6 7.6 0 0 1 2.926 6.192z" transform="translate(-266.142 -252.135)" fill="#d8c40d"/><path id="Path_47" data-name="Path 47" class="cls-2" d="M208.131 264.522v-21.87a11 11 0 0 0-.354-3.629 2.59 2.59 0 0 0-1.244-1.192 4.477 4.477 0 0 0-1.409-.348 34.364 34.364 0 0 0-27.082 27.039z" transform="translate(-178.043 -237.483)"/></g></g></svg>