<svg xmlns="http://www.w3.org/2000/svg" width="512" height="512"  xmlns:v="https://vecta.io/nano"><path fill="#f1f1f1" d="M0 0h512v512H0z"/><path d="M412.65 89.6H99.35a9.75 9.75 0 0 0-9.75 9.75v281.971 31.329a9.75 9.75 0 0 0 9.75 9.75h313.3a9.75 9.75 0 0 0 9.75-9.75v-31.329V99.35a9.75 9.75 0 0 0-9.75-9.75zm-9.75 264.79l-61.085-73.302a9.75 9.75 0 0 0-6.685-3.476c-2.605-.216-5.186.623-7.166 2.328l-47.89 41.233-84.423-102.696a9.75 9.75 0 0 0-16.014 1.385L109.1 344.338V109.1h293.8v245.29zm-84.24-202.13c-22.651 0-41.079 18.429-41.079 41.08s18.429 41.081 41.079 41.081 41.079-18.429 41.079-41.08-18.427-41.081-41.079-41.081z" fill="#fff"/></svg>